<?xml version="1.0" encoding="UTF-8" standalone="no"?>
<!-- Created with Inkscape (http://www.inkscape.org/) -->
<svg xmlns:dc="http://purl.org/dc/elements/1.1/" xmlns:cc="http://creativecommons.org/ns#" xmlns:rdf="http://www.w3.org/1999/02/22-rdf-syntax-ns#" xmlns:svg="http://www.w3.org/2000/svg" xmlns="http://www.w3.org/2000/svg" xmlns:sodipodi="http://sodipodi.sourceforge.net/DTD/sodipodi-0.dtd" xmlns:inkscape="http://www.inkscape.org/namespaces/inkscape" width="229.19875" height="314.99646" id="svg6345" version="1.1" inkscape:version="0.48.1 " sodipodi:docname="New document 2">
  <defs id="defs6347">
    <clipPath id="clip1">
      <path inkscape:connector-curvature="0" d="m 62,449.42969 183.36328,0 0,-252 -183.36328,0 z m 0,0" id="path765"/>
    </clipPath>
  </defs>
  <sodipodi:namedview id="base" pagecolor="#ffffff" bordercolor="#666666" borderopacity="1.0" inkscape:pageopacity="0.0" inkscape:pageshadow="2" inkscape:zoom="0.35" inkscape:cx="114.59938" inkscape:cy="157.49823" inkscape:document-units="px" inkscape:current-layer="layer1" showgrid="false" fit-margin-top="0" fit-margin-left="0" fit-margin-right="0" fit-margin-bottom="0" inkscape:window-width="1366" inkscape:window-height="706" inkscape:window-x="-8" inkscape:window-y="-8" inkscape:window-maximized="1"/>
  <metadata id="metadata6350">
    <rdf:RDF>
      <cc:Work rdf:about="">
        <dc:format>image/svg+xml</dc:format>
        <dc:type rdf:resource="http://purl.org/dc/dcmitype/StillImage"/>
        <dc:title/>
      </cc:Work>
    </rdf:RDF>
  </metadata>
  <g inkscape:label="Layer 1" inkscape:groupmode="layer" id="layer1" transform="translate(-260.40062,-374.86395)">
    <g transform="matrix(1.25,0,0,1.25,182.89835,128.0733)" clip-path="url(#clip1)" clip-rule="nonzero" id="g3315">
      <path inkscape:connector-curvature="0" style="fill:#002244;fill-opacity:1;fill-rule:nonzero;stroke:none" d="m 244.39844,339.74609 c -1.14453,-1.97656 -2.72657,-4.51562 -2.72657,-4.51562 l -2.78125,-2.60156 -1.51171,-3.7461 c 0,0 -1.22266,-2.1875 -3.21485,-3.16406 -1.99219,-0.97656 -4.90625,-2.58594 -4.90625,-2.58594 0,0 -1.64453,-2.04297 -3.29687,-4.79687 -1.64844,-2.75391 -3.42969,-3.80078 -3.42969,-3.80078 l -2.12891,-0.69532 -4.1289,-2.3789 -0.57813,-1.69532 -4.51172,-1.71484 1.39844,-1.39844 -5.28906,-2.07031 -3.96485,0.16797 c 0,0 0.69922,-1.42188 -1.71484,-2.25391 -2.41797,-0.83203 -5.39062,-0.52734 -5.39062,-0.52734 0,0 -0.79297,-1.625 -4.05079,-1.45703 -3.26171,0.16406 -9.05859,1.90625 -9.05859,1.90625 l -2.27734,-1.11719 -9.41407,3.39063 c 0,0 0.11329,-1.08985 2.80079,-2.24219 2.67968,-1.14844 5.10156,-4.89453 6.4414,-5.82422 1.33985,-0.93359 1.81641,-3.69922 1.81641,-3.69922 0,0 2.33203,-0.79687 3.80078,-3.42969 1.46875,-2.63281 3.33984,-4.40625 3.33984,-4.40625 l -1.82031,-0.84765 2.10938,-2.14453 c 0,0 0.76562,-1.91797 1.18359,-3.48047 0.41016,-1.5586 1.96484,-2.5625 1.96484,-2.5625 l 1.96094,-3.27735 c 0,0 -0.72266,-2.12109 -1.56641,-1.12109 -0.84765,1 -0.67578,-0.75 -0.67578,-0.75 l 2.0586,-3.51172 1.78515,-2.46484 1.96094,-4.48047 -2.51953,1.40234 c 0,0 0.76953,-2.48047 0.55078,-3.82422 -0.22266,-1.34375 -0.0156,-2.125 0.1875,-3.61328 0.19922,-1.49219 -0.87891,-3.25781 -0.87891,-3.25781 l 0.97657,-2.69922 -0.082,-1.62891 -1.07032,-1.05468 -1.38672,-5.44532 0.53907,-3.97265 -0.3125,-3.67969 -0.30078,-2.98047 0.33984,-1.77344 -0.73047,-2.82812 -0.93359,-1.33984 0.11328,-0.9336 c 0,0 -0.0937,-1.57031 -2.33203,-1.85156 0.90625,-1.23047 -0.23047,-3.00781 -0.23047,-3.00781 l -3.41406,-7.08203 -0.89454,2.08593 -0.0312,2.6875 0.66016,3.32813 -0.0547,1.91406 c 0,0 -1.04687,1.77734 -0.46875,3.47266 0.57813,1.69922 2.4375,5.94531 2.4375,5.94531 0,0 -0.91406,1.49609 -0.8164,4.54297 0.0937,3.04687 1.05859,7.77734 1.05859,7.77734 l 0.17578,4.67578 0.79688,3.90235 c 0,0 -1.70703,-0.12891 -1.25782,2.55859 0.44532,2.69141 0.35938,5.28125 0.35938,5.28125 0,0 -2.03516,1.79297 -2.59375,2.92969 -0.55859,1.14062 -1.00781,4.5 -1.00781,4.5 0,0 -2.39063,0.43359 -1.875,3.33594 0.51562,2.90234 -0.46875,3.47265 -0.46875,3.47265 l -2.74219,3.06641 c 0,0 -0.13672,2.41406 -0.55469,3.97656 -0.41406,1.55859 -2.80078,5.32031 -2.80078,5.32031 0,0 -1.76562,0.36328 -2.25391,1.71485 -0.48437,1.35156 -0.48046,2.05859 -0.48046,2.05859 0,0 -1.14063,-1.26953 -1.97657,0.4375 -0.84375,1.70703 -1.53515,3.83984 -1.53515,3.83984 0,0 -1.63282,0.082 -2.53907,1.57813 -0.91406,1.49609 -3.2539,1.85156 -3.2539,1.85156 l 2.24219,-3.64062 -0.42188,-2.79297 -0.51172,-2.19141 1.94141,-4.54297 c 0,0 -0.28516,-1.70703 -0.36328,-2.6289 -0.0781,-0.92188 1.875,-2.96485 1.875,-2.96485 0,0 -0.5625,-2.21484 -0.86719,-4.48047 -0.30078,-2.26562 -0.45313,-4.10937 -0.45313,-4.10937 0,0 0.27735,-5.19141 -0.082,-6.25 -0.36328,-1.0625 -0.66406,1.29687 -0.66406,1.29687 l -0.79687,-2.33593 -0.72657,-2.82813 -1.93359,-2.89062 0.76172,-2.62891 -1.36328,-1.90234 -1.375,-4.02735 c 0,0 0.76172,-2.6289 -0.38282,-3.89843 -1.14453,-1.26563 -2.0664,-1.89844 -2.0664,-1.89844 0,0 -0.0859,-1.62891 -0.66797,-4.03516 -0.58594,-2.40234 -0.94922,-3.46484 -2.01563,-4.51953 -1.07031,-1.05469 -2.49218,-1.75391 -2.49218,-1.75391 l -2.37891,-5.58203 -0.0156,-1.47656 c 0,0 -0.0117,-0.66797 -1.86329,-1.93359 -1.85156,-1.25782 -2.91406,-2.29297 -2.91406,-2.29297 0,0 0.20313,-1.49219 -1.08203,-3.1836 -1.28906,-1.6914 -2.91797,-1.60937 -2.91797,-1.60937 L 142.42187,213.75 c 0,0 -0.2539,-2.87891 -1.80078,-3.14063 -0.83984,1.39844 -1.9375,-1.89453 -1.9375,-1.89453 l -2.49218,-1.7539 c 0,0 0.70312,-0.71485 -0.79688,-2.33203 -1.49609,-1.6211 -4.05859,-2.87891 -4.05859,-2.87891 0,0 -2.35157,-2.03906 -3.06641,-2.74219 -0.71484,-0.70312 -2.25,-1.57422 -2.25,-1.57422 0,0 -2.82031,-0.082 -2.38672,1.19141 0.4336,1.26953 0.38672,0.41406 1.52344,0.97266 1.13672,0.55859 3.47266,4.51562 3.47266,4.51562 l 3.52343,2.80469 0.22657,1.39844 c 0,0 0.0391,1.77343 0.82031,2.6875 0.78906,0.91406 1.23047,2.89843 1.9414,3.60156 0.71485,0.70312 1.91797,0.76562 1.91797,0.76562 0,0 1.26563,2.09375 2.26953,3.64453 1.00391,1.55079 1.57813,2.53907 2.86329,4.23047 1.28906,1.69141 1.96093,2.49219 1.96093,2.49219 l 1.21485,1.47656 c 0,0 -0.49219,0.64453 0.36718,1.76953 0.85938,1.12891 1.64844,2.75391 1.64844,2.75391 0,0 0.50781,1.48438 1.64453,2.03906 1.14063,0.5625 1.07813,1.76563 1.07813,1.76563 0,0 0.35937,1.0625 1.50781,3.03515 1.14844,1.98047 2.375,4.875 2.375,4.875 0,0 -2.18359,-1.21875 -1.60937,0.47657 0.58203,1.69531 3.36328,5.17578 3.36328,5.17578 l 0.59375,1.78906 c 0,0 -0.35938,2.53516 0.14453,4.01953 0.5039,1.48828 1.86328,2.67969 1.86328,2.67969 l 0.73047,3.53906 c 0,0 -0.91406,0.78516 -0.76172,1.91797 0.14844,1.13281 1.00781,2.48438 1.00781,2.48438 l 0,2.98437 c 0,0 -0.74609,1.54688 -0.38672,2.60938 0.36328,1.05859 0.54688,1.08593 0.98438,3.0664 0.4414,1.98047 -0.50781,3.8711 -0.50781,3.8711 0,0 -1.48438,0.50781 -1.54688,1.71484 -0.0625,1.20312 0.16797,3.25781 0.16797,3.25781 0,0 -0.13281,1.70313 -0.26563,2.69531 -0.13281,0.99219 0.4336,1.26954 -0.41015,2.26954 -0.84375,0.99609 -0.83594,1.70703 -0.32813,3.1914 0.50391,1.48438 -0.21093,2.78125 -0.21093,2.78125 0,0 -0.66407,-1.13281 -1.73438,-2.82422 -1.14453,-1.8164 -4.30078,-2.98828 -4.30078,-2.98828 l 1.24609,-1.89453 0.91407,-2.29687 -0.0273,-2.73829 0.20313,-1.49218 -0.64844,-1.19922 -1.54688,-4.85938 c 0,0 -2.02343,-1.1289 -2.80078,-1.67968 -2.3789,-1.67969 -1.96093,1.12109 -1.96093,1.12109 l 1.40234,1.39844 c 0,0 0.74609,1.30468 0.61719,3.00781 -0.12891,1.70312 -0.58203,1.24219 0.28125,3.07812 0.86328,1.83594 -2.02735,5.91407 -2.02735,5.91407 0,0 -1.01172,-1.45313 -3.41797,-0.8711 -2.40625,0.58594 -2.26953,2.62891 -2.26953,2.62891 l -1.82422,-1.5625 -2.78125,-1.90625 c 0,0 -0.19921,-2.44531 -0.69921,-3.22266 -0.50391,-0.77734 -0.40625,-2.25 -0.40625,-2.25 l 0.28125,-3.92187 -1.90625,0.17578 c 0,0 -1.53907,2.22266 -1.95704,3.07812 -0.42187,0.85547 -0.23046,1.44141 -0.082,2.57422 0.14844,1.13282 0.875,3.25391 0.875,3.25391 l -0.63281,0.92578 c 0,0 0.57813,1.69531 1.79297,3.17578 1.21484,1.48047 2.875,2.78906 2.875,2.78906 l 0.55859,1.67969 c 0,0 -0.98828,1.78516 -1.82031,4.19922 -0.83594,2.41797 0.30078,4.89844 -0.83984,4.33984 -1.13672,-0.55468 -3.03125,-2.28906 -3.03125,-2.28906 l -1.51172,-3.03515 c 0,0 0.41406,-1.5625 -0.94141,-2.75782 -1.35547,-1.19531 -2.49218,-1.7539 -2.49218,-1.7539 0,0 0.13281,-0.99219 -1.07422,-1.76563 -1.21485,-0.76953 -2.70313,-0.97265 -2.70313,-0.97265 0,0 0.62891,-1.63282 -0.4414,-2.6875 -1.07422,-1.0586 -1.85547,-1.26563 -1.85547,-1.26563 l -1.72657,-3.67187 c 0,0 -1.07812,-2.37891 -2.08203,-3.9336 -1.00781,-1.55078 -0.73828,-3.6289 -0.73828,-3.6289 l -1.22656,-3.60547 c 0,0 0.76172,-1.91797 -0.0352,-4.25 -0.79687,-2.33203 -2.85937,-3.52344 -2.85937,-3.52344 0,0 1.12109,-2.27344 0.61328,-3.76172 -0.50391,-1.48437 -2.01172,-3.8125 -2.01172,-3.8125 l -0.38672,-4.60156 0.36719,-2.38281 c 0,0 0.50781,-1.50782 0,-2.99219 -0.50391,-1.48438 -1.14063,-3.125 -1.14063,-3.125 l 0.0547,-2.6211 0.33985,-1.77343 -1.35157,-1.19532 -0.16015,-1.84375 c 0,0 0.77734,-0.5 0.33593,-3.1914 -0.44531,-2.6875 -2.30078,-4.65625 -2.30078,-4.65625 l -0.24218,-3.47266 0.90625,-2.20703 c 0,0 -1.16797,-2.56641 -0.32813,-4.27344 0.83594,-1.70703 0.23438,-1.9375 0.29688,-3.14453 0.0625,-1.20703 0.90625,-3.88672 0.90625,-3.88672 0,0 1.95703,-4.88672 -1.80079,-1.78906 l -1.1914,3.57813 -0.94922,2.78125 -0.43359,2.95703 -0.53516,3.97265 -1.66406,4.17969 1.19531,2.99219 0.26562,4.26562 -0.16796,3.21485 0.96093,1.8789 -1.20703,2.9375 -1.2539,-0.76562 1.95703,6.52734 0.0195,2.83203 0.58594,2.64453 0.67968,2.92188 0.30469,2.73828 -0.44922,3.3125 0.54297,3.94141 1.33984,5.36328 -1.89843,-0.60156 2.51953,3.92187 1.17969,4.14453 1.08203,1.8086 0.96093,1.88281 0.95313,0.9375 0.30078,2.73828 1.0625,3.10937 2.75781,2.53516 1.05078,1.21875 0.20313,2.45703 0.96094,1.88281 1.24609,2.73047 1.23438,0.83985 0.57812,1.69922 1.53125,2.63281 3.03516,1.49219 2.30078,3.73046 -3.07813,0.28125 -2.80078,-0.28125 -4.48047,-1.67968 -0.54687,1.64843 -3.27735,-1.79687 -2.36718,0.75 c 0,0 -0.95703,-1.88281 -2.57032,-2.91016 -1.61718,-1.02734 -2.74609,-0.64062 -2.74609,-0.64062 l -0.55859,1.13672 -5.613285,-5.34375 -1.382813,1.63672 c 0,0 -1.273437,-2.94141 -2.3125,-3.21875 -1.042968,-0.27344 -5.214843,-2.32422 -5.214843,-2.32422 0,0 0.08203,-1.60547 -1.539063,-3.57813 -1.617187,-1.97656 -3.8125,-4.69922 -3.8125,-4.69922 L 82.875,284.85547 c 0,0 -1.523438,-1.6875 -2.941406,-2.15235 -1.425782,-0.46093 -1.058594,-2.16406 -1.160156,-3.39062 -0.101563,-1.23047 -2.277344,-6.54297 -2.277344,-6.54297 l -0.972656,1.65234 -1.140626,-1.5039 0.273438,-1.04297 -1.335938,-2.06641 -1.429687,-1.41015 -0.867187,-2.54297 -1.4375,-2.35156 -2.011719,-4.05079 -1.433594,-1.6875 c 0,0 0.664063,-0.57421 0.273437,-1.70312 -0.382812,-1.13281 -1.273437,-3.70313 -3.257812,-3.97266 -1.984375,-0.26953 -0.808594,3.15235 -0.808594,3.15235 l 0.210938,2.22656 1.246094,2.95703 0.488281,2.35938 2.5,6.40625 -0.453125,2.36718 c 0,0 1.054687,2.16407 2.191406,2.72266 1.136719,0.55859 1.808594,1.59375 1.808594,1.59375 l 1.046875,1.22266 -0.359375,2.64843 c 0,0 0.675781,1.97657 1.25,2.73047 0.574218,0.75 1.238281,1.78516 1.238281,1.78516 l 1.621094,1.97265 1.332031,1.125 1.253906,3.67579 1.71875,2.2539 2.667969,3.19531 c 0,0 1.421875,0.46094 1.425781,1.40625 0.0078,0.94532 -1.996094,0.64063 -1.996094,0.64063 0,0 2.398438,2.37891 4.109376,3.69141 1.707031,1.3125 4.003906,5.26171 4.003906,5.26171 l 1.046875,0.27735 1.429687,2.35156 2.089844,1.49609 6.07031,2.98047 1.50782,-0.19922 c 0,0 -0.0273,1.84375 1.67578,2.21094 1.70312,0.36719 4.78125,0.60547 4.78125,0.60547 l 2.6875,0.89453 c 0,0 1.15625,1.59375 2.38672,1.49219 1.22656,-0.10547 4.48437,-0.59766 4.48437,-0.59766 l 6.56641,-0.0234 -8.96485,4.5 -0.59765,2.08984 -3.57813,2.69531 c 0,0 -2.33203,2.33203 -2.60547,3.375 -0.27734,1.04297 -1.40234,2.3711 -1.40234,2.3711 l -2.16016,2 -2.07031,1.33984 -1.96484,2.5625 -3.542972,3.57422 c -1.953126,0.41406 -0.195313,2.125 -1.035157,3.35937 -0.839843,1.23047 -3.753906,3.80469 -4.972656,4.85157 -1.222656,1.05078 -1.027344,1.61718 -0.738281,2.46093 L 91.035156,355 l -1.214844,1.99609 0.582032,1.69532 0.101562,1.23046 c 0,0 -0.929687,1.89454 -1.488281,3.03516 -0.558594,1.13672 -2.152344,2.94141 -2.152344,2.94141 0,0 -0.367187,1.70312 0.01953,2.83593 0.386719,1.13282 1.144532,1.50391 1.144532,1.50391 l -1.496094,2.08984 c 0,0 -0.558594,1.13672 0.207031,2.45313 0.761719,1.31641 1.054688,2.16797 1.054688,2.16797 0,0 -0.730469,3.40625 -1.484375,3.97656 -0.75,0.57422 0.199218,1.51172 -0.164063,3.21484 -0.367187,1.70313 -0.996093,6.33985 -0.996093,6.33985 0,0 -0.363282,1.70312 0.02344,2.83203 0.386719,1.13281 2.308594,5.84375 2.9375,1.20703 0.625,-4.63281 -0.140625,-5.94922 -0.140625,-5.94922 l 1.304688,-2.65625 0.761718,-2.70312 c 0,0 1.957032,-0.4375 2.515625,-1.57422 0.558594,-1.13672 -0.980469,-4.71875 0.136719,-6.99219 1.121094,-2.27734 2.335938,-4.26953 2.335938,-4.26953 l 1.203124,-2.9375 -0.398437,-3.01953 c 0,0 1.214844,-1.99219 2.339844,-3.32422 1.125,-1.33203 1.957029,-3.51172 1.957029,-3.51172 0,0 1.70313,0.36719 1.88281,-0.95703 0.17969,-1.32422 0.61328,-6.52344 0.61328,-6.52344 0,0 1.41407,2.3086 2.15625,0.79297 0.7461,-1.51953 1.78125,-4.98047 3.00782,-5.08203 1.23047,-0.10547 3.21093,-0.78125 4.23047,-3.33984 1.02343,-2.5586 1.20703,-2.9375 2.25,-2.66016 1.04296,0.27734 2.05859,-1.98047 3.67187,-4.59766 2.08984,-3.39062 4.48047,-3.08203 4.48047,-3.08203 l 7.28125,-4.76172 c 0,0 -2.14453,3.32813 -3.35938,5.32032 -1.21484,1.99218 -2.7539,2.07031 -3.64062,5.32031 3.125,-1.01172 -2.17969,4.39844 -2.17188,5.34375 0.008,0.94531 -2.03515,6.0625 -2.03515,6.0625 0,0 -0.9375,0.95312 -0.45313,2.36719 0.48047,1.41406 0.58203,2.64062 0.58203,2.64062 l -2.3164,6.16016 c 0,0 -0.27735,1.03906 -0.26953,1.98437 0.008,0.94531 0.39062,2.07422 0.39062,2.07422 l -0.64062,2.75 c 0,0 -1.02735,1.61328 -0.82813,3.12109 0.20313,1.51172 1.06641,3.10938 1.06641,3.10938 0,0 -0.17578,2.26953 -0.0703,3.5 0.10546,1.22656 0.76562,2.75 0.76562,2.75 l -0.8125,5.01562 -0.44141,4.25391 c 0,0 -0.63281,1.50391 0.79297,2.91016 1.42578,1.40625 1.50782,1.98828 1.50782,1.98828 l 0.17187,3.33203 c 1.40234,1.67969 2.48438,4.01953 1.03125,5.23828 l 1.44922,4.24219 1.71875,2.2539 -0.27734,4.78516 1.67968,-1.96094 1.02344,6.13282 1.24609,2.73437 2.1875,1.78125 -0.26562,1.98438 1.33594,2.0664 1.23046,0.84375 c 0,0 0.48438,1.41406 0.8711,2.54297 0.38672,1.13281 1.25,2.73438 1.25,2.73438 l 0.96094,2.82812 0.76953,1.3125 1.70703,1.3125 0.48437,1.41406 c 0,0 0.76953,2.26172 1.44141,3.29688 0.66797,1.03515 1.76562,1.91406 1.76562,1.91406 l 4.09766,4.59766 c 0,0 4.625,-0.31641 2.14844,-2.94532 -2.47266,-2.625 -4.94141,-4.30859 -4.94141,-4.30859 l 0.40625,-2.02344 -0.48047,-1.41015 -0.86328,-1.60157 -1.625,-1.97265 0.28125,-1.04297 -1.64453,-4.80859 -1.04687,-1.21875 -2.11719,-5.27735 -0.85547,-0.65625 -2.04297,-7.82422 c 0,0 1.51953,0.74219 0.65234,-1.80078 -0.87109,-2.54297 -1.73046,-4.14453 -1.73046,-4.14453 0,0 -2.10938,-4.33203 -2.02735,-5.94141 0.082,-1.60546 1.10156,-4.16406 0.32813,-6.42578 -0.76953,-2.26172 -1.73438,-5.08984 -1.73438,-5.08984 0,0 2.14453,2.16016 2.22656,0.55469 0.082,-1.60547 -2.5664,-8.01563 -2.5664,-8.01563 l 0.83594,-2.17969 c 0,0 2.25781,-1.71875 0.63281,-3.6914 -0.67188,-0.82031 -0.98438,-1.10156 -1.12109,-1.16016 l 0.16406,-1.19531 0.0508,-2.62109 0.54687,-2.55469 1.05469,-1.07031 0.26953,-1.98829 0.98828,-0.57421 -0.23047,-2.76172 0.4961,-3.54688 1.12109,-4.19922 1.1211,-2.80078 0.27734,-3.50781 c 0,0 1.20312,0.0625 1.33594,-1.63672 0.1289,-1.70312 1.14843,-5.45703 1.14843,-5.45703 l 1.75,-2.89453 c -0.3125,0.89453 1.29297,2.30469 1.73047,3.58203 0.4336,1.26953 1.23438,2.41016 1.23438,2.41016 l 0.4414,2.10156 c 0,0 2.05079,2.38672 2.82813,2.59375 0.78125,0.20703 1,1.83203 1.85156,2.25 0.85547,0.42187 1.94922,1.82422 1.94922,1.82422 l 2.48828,-0.0703 c 0,0 0.14844,1.12891 1.57031,1.82813 1.42579,0.69922 2.76563,-0.23438 2.76563,-0.23438 0,0 0.72266,2.08204 1.92187,2.14454 1.20704,0.0586 3.58594,1.50781 3.58594,1.50781 l 3.26953,0.20312 5.41016,-1.60547 c 1.98047,-0.54296 3.64062,-3.35937 3.64062,-3.35937 l 0.28125,-1.66016 2.51954,-1.69922 0.57812,-2.52343 0.84375,-1.97657 1.37891,-2.5 0.92187,-3.36328 c 0,0 0.76563,-3.89843 0.75781,-5.3164 -0.0117,-1.41797 -0.96875,-2.78125 -0.83984,-4.48047 0.12891,-1.70313 -0.71484,-4.01172 0.5625,-3.73828 1.27344,0.27343 2.42969,0.14453 3.36328,1.48437 0.92969,1.33985 1.66016,0.58985 2.30469,1.78906 0.64844,1.20313 2.41797,0.83594 2.41797,0.83594 l 2.15234,3.52344 c 0,0 1.35156,1.19922 2.13672,1.40234 0.77734,0.21094 1.42969,2.11719 1.42969,2.11719 0,0 1.41797,-0.008 1.91015,-0.64844 0.49219,-0.64453 1.48829,0.19922 1.48829,0.19922 0,0 0.22265,1.34766 1.22265,2.1875 0.9961,0.84375 2.77344,1.1875 2.77344,1.1875 0,0 0.79687,2.33203 1.22656,2.89453 0.42578,0.56641 1,1.55078 2.06641,1.89844 1.0664,0.34766 1.6289,-0.082 1.6289,-0.082 0,0 0.58204,2.40625 1.3711,3.32031 0.78515,0.91797 2.21484,2.32422 2.21484,2.32422 0,0 0.50391,1.48438 1.28516,1.69141 l 0.78125,0.20312 1.72656,2.96875 c 0,0 1.0625,0.34375 1.35156,1.19141 0.28907,0.84765 2.30078,4.66015 2.88282,6.35937 0.57812,1.69532 0.52734,4.32032 0.52734,4.32032 0,0 1.64844,2.75 1.79687,3.88281 0.14844,1.13281 -1.04296,3.19531 -1.04296,3.19531 0,0 0.9414,2.04688 1.30078,3.10938 0.35937,1.0625 0.58984,3.11328 0.58984,3.11328 0,0 -1.48047,1.21484 -1.25781,2.5625 0.22265,1.34375 0.875,3.2539 0.875,3.2539 0,0 -0.55078,2.55078 -0.0508,3.32813 0.50781,0.77734 2.35547,2.03906 2.35547,2.03906 0,0 -1.10938,2.98438 -0.60547,4.46875 0.50781,1.48438 1.09375,3.89063 1.09375,3.89063 l 0.94531,3.46484 -1.03516,3.90625 0.88282,4.67187 -0.83985,0.9961 -0.53906,3.97265 0.66016,3.32813 -0.82422,3.83203 c 0,0 -0.26563,1.98828 1.29297,2.40234 1.5625,0.41407 1.98046,-1.15234 2.17968,-2.64062 0.20313,-1.48828 0.88282,-5.03906 0.88282,-5.03906 l 1.10546,-4.40235 -0.65234,-1.90625 0.56641,-9.42968 -0.58203,-2.40625 0.69531,-1.42188 -1.01563,-3.67578 1.96094,0.15625 -1.78516,-5.90234 -0.8789,-3.25 c 0,0 2.19531,-0.51172 1.89844,-2.07032 l -1.08985,-3.88672 -0.58984,-3.11718 -0.58203,-1.69532 0.35156,-1.0664 -0.15625,-1.83985 0.41406,-1.5625 -0.29687,-1.55859 0.47656,-2.76562 -1.64844,-2.75391 -1.16406,-4.10156 -0.92578,-0.62891 0.41406,-1.5625 -0.65625,-2.62109 -1.34375,-1.89844 1.67969,-0.83984 c -1.11719,-1.1211 -1.67969,-4.48047 -2.94531,-5.60157 -2.14063,-1.89453 -3.4961,-3.30468 -3.4961,-3.30468 0,0 -0.42969,-0.56641 -0.79297,-1.625 -0.36328,-1.0586 0.0625,-1.20313 -1.15234,-2.6875 -1.21875,-1.47657 -1.85156,-1.26172 -1.85156,-1.26172 l -0.22657,-1.34375 c 0,0 0.20313,-1.49219 -1.22265,-2.89844 -1.42578,-1.40625 -2.64063,-2.17578 -2.64063,-2.17578 l -1.01172,-2.96875 -4.41796,-3.22656 c 0,0 1.47656,-1.92579 -1.01172,-2.97266 -2.48828,-1.04297 -5.11719,-1.80469 -5.11719,-1.80469 l -1.77734,-1.05078 c 0,0 0.91015,-1.49219 -1.71875,-2.25391 -2.62891,-0.76171 -3.33594,-0.75781 -3.33594,-0.75781 l -1.42578,-1.40625 c 0,0 0.19922,0.91797 -2.07422,-0.19922 -2.27735,-1.11718 -4.38281,-1.66406 -4.38281,-1.66406 -2.23829,-0.27734 -6.02344,-1.29297 -3.29297,-1.56641 0,0 1.91406,-2.17968 5.24609,-2.13671 3.32813,0.0508 4.59375,-1.09375 4.59375,-1.09375 l 2.76563,-0.23047 1.98437,0.26562 c 0,0 1.78125,1.05078 2.84766,1.39844 1.0625,0.34766 3.09765,1.32422 3.94531,1.03516 0.84766,-0.28907 2.37109,0.125 2.37109,0.125 0,0 2.625,0.75781 3.76172,1.32031 1.13672,0.55859 2.0586,0.48047 2.98047,0.39844 l 0.92188,-0.0742 3.76953,2.02734 2.08203,3.31641 1.55469,-0.29688 2.36718,4.16406 2.76953,0.47657 1.91797,0.76562 c 0,0 0.35938,1.0625 1.78907,2.46875 1.42578,1.40625 3.1289,1.53906 3.1289,1.53906 l 1.57813,2.53516 c 0,0 0.65234,1.91016 1.71484,1.54688 l 1.05859,-0.35938 3.26954,1.96094 c 0,0 0.16015,1.83984 1.51171,3.03515 1.35547,1.19532 1.84766,0.55469 1.84766,0.55469 0,0 1.08594,3.17969 1.51563,3.74219 0.43359,0.56641 2.57031,4.87891 3.84375,4.44531 1.26953,-0.4375 1.03906,-4.6914 -0.10547,-6.66797" id="path3317"/>
      <path inkscape:connector-curvature="0" style="fill:#002244;fill-opacity:1;fill-rule:nonzero;stroke:none" d="m 230.64844,427.96875 c 0.63281,0 1.23828,0.15625 1.82031,0.47266 0.58203,0.3164 1.03516,0.76953 1.36719,1.35937 0.33203,0.58984 0.5,1.20703 0.5,1.85156 0,0.64063 -0.16407,1.25 -0.48828,1.83203 -0.32813,0.58204 -0.78125,1.03907 -1.36329,1.36329 -0.58203,0.32421 -1.1914,0.48828 -1.83593,0.48828 -0.64063,0 -1.25,-0.16407 -1.83203,-0.48828 -0.58204,-0.32422 -1.03516,-0.78125 -1.36329,-1.36329 -0.32421,-0.58203 -0.48437,-1.1914 -0.48437,-1.83203 0,-0.64453 0.16406,-1.26172 0.49609,-1.85156 0.33203,-0.58984 0.78516,-1.04297 1.36719,-1.35937 0.58203,-0.31641 1.1875,-0.47266 1.81641,-0.47266 m 0,0.73437 c -0.50391,0 -0.98828,0.125 -1.45313,0.375 -0.46094,0.25391 -0.82812,0.61719 -1.09375,1.08594 -0.26562,0.47266 -0.39844,0.96875 -0.39844,1.48438 0,0.51172 0.12891,1.0039 0.39063,1.46875 0.25781,0.46484 0.62109,0.82812 1.08984,1.08984 0.46485,0.26172 0.95313,0.39063 1.46485,0.39063 0.51562,0 1.0039,-0.12891 1.46875,-0.39063 0.46484,-0.26172 0.82812,-0.625 1.08984,-1.08984 0.26172,-0.46485 0.39063,-0.95703 0.39063,-1.46875 0,-0.51563 -0.13282,-1.01172 -0.39844,-1.48438 -0.26563,-0.46875 -0.63281,-0.83203 -1.09766,-1.08594 -0.46484,-0.25 -0.94922,-0.375 -1.45312,-0.375 m -1.65235,4.91797 0,-3.91406 0.79297,0 c 0.7461,0 1.16016,0.004 1.25,0.0117 0.26172,0.0234 0.46875,0.0742 0.61328,0.15625 0.14453,0.082 0.26953,0.20703 0.36328,0.375 0.0977,0.16797 0.14844,0.35547 0.14844,0.55859 0,0.28125 -0.0937,0.52344 -0.27734,0.72266 -0.1836,0.19922 -0.44141,0.32422 -0.77344,0.375 0.11719,0.043 0.20703,0.0937 0.26953,0.14453 0.0664,0.0547 0.15235,0.15625 0.26563,0.30078 0.0312,0.0391 0.125,0.19922 0.28515,0.47656 l 0.46094,0.79297 -0.97266,0 -0.32812,-0.63672 c -0.22266,-0.42968 -0.40625,-0.69921 -0.55078,-0.80859 -0.14844,-0.10937 -0.32813,-0.16797 -0.55078,-0.16797 l -0.20703,0 0,1.61328 z m 0.78907,-2.22265 0.32421,0 c 0.45704,0 0.74219,-0.0195 0.85547,-0.0547 0.10938,-0.0352 0.19922,-0.0977 0.26172,-0.18359 0.0664,-0.0899 0.0977,-0.19141 0.0977,-0.30079 0,-0.10937 -0.0312,-0.20703 -0.0937,-0.29296 -0.0625,-0.082 -0.15235,-0.14454 -0.26563,-0.17969 -0.11718,-0.0391 -0.40234,-0.0586 -0.85547,-0.0586 l -0.32421,0 z m 0,0" id="path3319"/>
    </g>
  </g>
</svg>